<?xml version="1.0" encoding="utf-8"?>
<!-- Generator: Adobe Illustrator 17.0.0, SVG Export Plug-In . SVG Version: 6.00 Build 0)  -->
<!DOCTYPE svg PUBLIC "-//W3C//DTD SVG 1.1//EN" "http://www.w3.org/Graphics/SVG/1.1/DTD/svg11.dtd">
<svg version="1.1" id="Layer_1" xmlns="http://www.w3.org/2000/svg" xmlns:xlink="http://www.w3.org/1999/xlink" x="0px" y="0px"
	 width="600px" height="216px" viewBox="0 0 600 216" enable-background="new 0 0 600 216" xml:space="preserve">
<g>
	<path fill="#F79320" d="M310.927,73.235c0,4.87-3.948,8.818-8.818,8.818s-8.817-3.948-8.817-8.818c0-4.87,3.947-8.818,8.817-8.818
		S310.927,68.366,310.927,73.235"/>
	<path fill="#F79320" d="M302.11,82.387c-5.046,0-9.151-4.106-9.151-9.151c0-5.046,4.105-9.151,9.151-9.151s9.151,4.105,9.151,9.151
		C311.261,78.281,307.156,82.387,302.11,82.387 M302.11,64.752c-4.678,0-8.483,3.805-8.483,8.483c0,4.678,3.805,8.483,8.483,8.483
		c4.677,0,8.483-3.805,8.483-8.483C310.593,68.557,306.787,64.752,302.11,64.752"/>
	<path fill="#F79320" d="M418.528,55.771c0,4.87-3.948,8.817-8.818,8.817c-4.87,0-8.817-3.948-8.817-8.817s3.948-8.818,8.817-8.818
		C414.58,46.953,418.528,50.901,418.528,55.771"/>
	<path fill="#F79320" d="M409.711,64.922c-5.047,0-9.152-4.106-9.152-9.151c0-5.046,4.106-9.151,9.152-9.151
		c5.046,0,9.151,4.105,9.151,9.151C418.862,60.816,414.757,64.922,409.711,64.922 M409.711,47.287c-4.678,0-8.484,3.805-8.484,8.483
		c0,4.678,3.805,8.483,8.484,8.483c4.677,0,8.483-3.805,8.483-8.483C418.194,51.093,414.388,47.287,409.711,47.287"/>
	<path fill="#F79320" d="M271.108,140.042h-0.252c-1.18,2.018-2.648,3.763-4.414,5.233c-1.765,1.472-3.679,2.692-5.738,3.658
		c-2.062,0.967-4.226,1.68-6.496,2.144c-2.27,0.462-4.499,0.694-6.684,0.694c-4.457,0-8.576-0.757-12.36-2.27
		c-3.783-1.513-7.021-3.634-9.711-6.369c-2.692-2.731-4.793-5.969-6.305-9.711c-1.514-3.741-2.271-7.839-2.271-12.297
		c0-4.455,0.757-8.554,2.271-12.298c1.513-3.74,3.613-6.977,6.305-9.711c2.69-2.731,5.928-4.856,9.711-6.368
		c3.784-1.513,7.902-2.271,12.36-2.271c2.185,0,4.414,0.233,6.684,0.693c2.27,0.464,4.434,1.179,6.496,2.145
		c2.059,0.967,3.973,2.188,5.738,3.657c1.766,1.472,3.235,3.216,4.414,5.233h0.252V54.912h7.567v93.343L271.108,140.042z
		 M271.864,121.125c0-3.28-0.631-6.369-1.891-9.269c-1.262-2.901-2.986-5.424-5.171-7.567c-2.187-2.145-4.751-3.848-7.692-5.108
		c-2.944-1.261-6.139-1.893-9.585-1.893c-3.531,0-6.727,0.631-9.585,1.893c-2.859,1.26-5.296,2.963-7.314,5.108
		c-2.018,2.143-3.553,4.666-4.603,7.567c-1.053,2.9-1.576,5.99-1.576,9.269c0,3.279,0.523,6.369,1.576,9.269
		c1.05,2.9,2.585,5.423,4.603,7.566c2.018,2.145,4.455,3.848,7.314,5.108c2.858,1.261,6.054,1.893,9.585,1.893
		c3.446,0,6.641-0.631,9.585-1.893c2.941-1.26,5.505-2.963,7.692-5.108c2.185-2.143,3.91-4.666,5.171-7.566
		C271.234,127.493,271.864,124.404,271.864,121.125"/>
	<path fill="#F79320" d="M247.524,153.776c-4.692,0-9.101-0.812-13.104-2.413c-4.027-1.611-7.524-3.907-10.395-6.824
		c-2.861-2.903-5.128-6.391-6.736-10.366c-1.603-3.963-2.416-8.354-2.416-13.048c0-4.693,0.813-9.083,2.416-13.049
		c1.608-3.973,3.874-7.46,6.737-10.366c2.873-2.918,6.37-5.214,10.394-6.824c4.006-1.601,8.415-2.413,13.105-2.413
		c2.302,0,4.685,0.247,7.083,0.734c2.413,0.493,4.749,1.264,6.947,2.294c2.204,1.035,4.279,2.357,6.17,3.931
		c0.477,0.399,0.937,0.817,1.378,1.254V52.907h11.578v100.484l-9.461-10.268c-1.021,1.371-2.191,2.609-3.495,3.694
		c-1.89,1.575-3.965,2.898-6.169,3.932c-2.195,1.029-4.531,1.8-6.947,2.293C252.216,153.529,249.833,153.776,247.524,153.776
		 M247.524,92.483c-4.179,0-8.086,0.716-11.616,2.127c-3.506,1.403-6.543,3.393-9.026,5.915c-2.491,2.528-4.468,5.575-5.876,9.056
		c-1.409,3.485-2.123,7.369-2.123,11.545c0,4.177,0.714,8.061,2.123,11.544c1.409,3.484,3.386,6.53,5.875,9.055
		c2.481,2.523,5.518,4.512,9.028,5.915c3.528,1.411,7.436,2.126,11.615,2.126c2.041,0,4.155-0.22,6.284-0.654
		c2.103-0.428,4.137-1.1,6.044-1.993c1.894-0.888,3.679-2.026,5.305-3.383c1.573-1.309,2.908-2.892,3.967-4.706l0.581-0.994h2.282
		l4.683,5.083V56.918h-3.557v47.293h-3.408l-0.581-0.994c-1.056-1.808-2.391-3.391-3.967-4.705
		c-1.627-1.355-3.413-2.493-5.306-3.382c-1.909-0.895-3.944-1.566-6.045-1.995C251.673,92.703,249.559,92.483,247.524,92.483
		 M247.524,146.966c-3.795,0-7.292-0.694-10.395-2.064c-3.09-1.361-5.77-3.235-7.965-5.568c-2.197-2.332-3.889-5.112-5.028-8.258
		c-1.125-3.101-1.696-6.451-1.696-9.952c0-3.503,0.571-6.852,1.697-9.953c1.138-3.145,2.831-5.925,5.028-8.258
		c2.194-2.332,4.874-4.205,7.965-5.568c3.101-1.368,6.598-2.062,10.394-2.062c3.703,0,7.193,0.691,10.375,2.055
		c3.156,1.351,5.95,3.209,8.307,5.519c2.362,2.317,4.248,5.075,5.606,8.2c1.366,3.139,2.058,6.527,2.058,10.069
		c0,3.541-0.692,6.928-2.058,10.07c-1.359,3.125-3.245,5.882-5.605,8.198c-2.357,2.311-5.152,4.167-8.308,5.519
		C254.716,146.274,251.226,146.966,247.524,146.966 M247.524,99.293c-3.234,0-6.187,0.579-8.776,1.722
		c-2.597,1.144-4.839,2.708-6.663,4.647c-1.82,1.934-3.226,4.246-4.178,6.876c-0.966,2.663-1.457,5.552-1.457,8.587
		c0,3.035,0.49,5.922,1.456,8.587c0.953,2.629,2.358,4.942,4.178,6.875c1.826,1.94,4.067,3.504,6.664,4.647
		c2.59,1.144,5.542,1.723,8.776,1.723c3.156,0,6.115-0.582,8.796-1.731c2.697-1.156,5.078-2.736,7.079-4.696
		c1.99-1.953,3.584-4.285,4.736-6.934c1.144-2.633,1.725-5.483,1.725-8.47c0-2.988-0.581-5.837-1.725-8.47
		c-1.152-2.648-2.746-4.982-4.736-6.935c-1.999-1.961-4.381-3.541-7.078-4.697C253.639,99.875,250.68,99.293,247.524,99.293"/>
	<rect x="298.6" y="91.991" fill="#F79320" width="7.567" height="58.266"/>
	<path fill="#F79320" d="M308.173,152.262h-11.578V89.986h11.578V152.262z M300.605,148.252h3.557V93.997h-3.557V148.252z"/>
	<path fill="#F79320" d="M386.124,146.474c0,7.229-1.052,13.073-3.153,17.53c-2.103,4.456-4.73,7.903-7.882,10.342
		c-3.153,2.438-6.539,4.078-10.152,4.919c-3.617,0.839-6.896,1.261-9.837,1.261c-2.944,0-5.824-0.275-8.639-0.82
		c-2.819-0.548-5.486-1.346-8.009-2.396c-2.523-1.053-4.814-2.334-6.874-3.848c-2.061-1.514-3.846-3.238-5.359-5.17l5.927-5.549
		c2.689,3.783,6.053,6.558,10.089,8.324c4.036,1.765,8.323,2.648,12.865,2.648c3.865,0,7.126-0.505,9.774-1.514
		c2.648-1.01,4.833-2.333,6.557-3.973c1.722-1.64,3.068-3.449,4.036-5.424c0.965-1.976,1.681-3.952,2.144-5.927
		c0.46-1.976,0.735-3.846,0.819-5.611c0.083-1.766,0.126-3.195,0.126-4.287v-8.072h-0.252c-2.188,3.531-5.152,6.306-8.892,8.324
		c-3.742,2.018-8.135,3.026-13.178,3.026c-4.289,0-8.324-0.775-12.107-2.332c-3.784-1.555-7.086-3.699-9.901-6.433
		c-2.819-2.731-5.045-5.905-6.684-9.52c-1.64-3.615-2.46-7.483-2.46-11.604c0-4.118,0.819-7.987,2.46-11.603
		c1.639-3.613,3.865-6.767,6.684-9.459c2.815-2.689,6.117-4.833,9.901-6.431c3.783-1.596,7.819-2.396,12.107-2.396
		c5.044,0,9.437,1.009,13.178,3.027c3.74,2.018,6.704,4.792,8.892,8.323h0.252v-0.117l7.567-9.72V146.474z M378.81,120.367
		c0-3.194-0.611-6.2-1.83-9.017c-1.219-2.816-2.859-5.253-4.919-7.315c-2.061-2.059-4.498-3.698-7.315-4.918
		c-2.818-1.218-5.822-1.83-9.018-1.83c-3.196,0-6.201,0.611-9.018,1.83c-2.817,1.22-5.255,2.859-7.313,4.918
		c-2.063,2.062-3.702,4.499-4.92,7.315c-1.22,2.817-1.828,5.823-1.828,9.017c0,3.196,0.609,6.203,1.828,9.018
		c1.218,2.818,2.857,5.255,4.92,7.315c2.058,2.061,4.496,3.7,7.313,4.918c2.817,1.22,5.822,1.83,9.018,1.83
		c3.195,0,6.2-0.61,9.018-1.83c2.816-1.218,5.253-2.857,7.315-4.918c2.059-2.06,3.7-4.497,4.919-7.315
		C378.199,126.57,378.81,123.563,378.81,120.367"/>
	<path fill="#F79320" d="M355.1,182.531c-3.054,0-6.088-0.288-9.021-0.856c-2.937-0.571-5.762-1.417-8.398-2.515
		c-2.665-1.111-5.117-2.485-7.292-4.082c-2.192-1.611-4.129-3.478-5.75-5.549l-1.132-1.446l8.943-8.372l1.33,1.87
		c2.463,3.465,5.577,6.038,9.258,7.649c3.762,1.645,7.822,2.48,12.061,2.48c3.605,0,6.653-0.465,9.061-1.381
		c2.385-0.91,4.367-2.105,5.89-3.553c1.541-1.468,2.759-3.1,3.616-4.852c0.896-1.833,1.567-3.685,1.993-5.503
		c0.433-1.852,0.691-3.619,0.77-5.25c0.082-1.777,0.123-3.149,0.123-4.191v-2.606c-1.787,1.818-3.855,3.363-6.187,4.622
		c-4.018,2.168-8.773,3.267-14.13,3.267c-4.537,0-8.867-0.836-12.871-2.485c-4.006-1.646-7.551-3.95-10.534-6.848
		c-2.984-2.89-5.378-6.3-7.114-10.132c-1.751-3.859-2.639-8.041-2.639-12.431c0-4.389,0.888-8.571,2.639-12.431
		c1.737-3.833,4.135-7.224,7.125-10.081c2.977-2.845,6.512-5.142,10.505-6.828c4.018-1.695,8.354-2.554,12.888-2.554
		c5.357,0,10.11,1.099,14.129,3.268c3.221,1.738,5.939,4.024,8.107,6.817l9.658-12.405v60.322c0,7.491-1.125,13.676-3.344,18.385
		c-2.229,4.725-5.079,8.45-8.469,11.073c-3.369,2.605-7.045,4.383-10.925,5.286C361.635,182.089,358.173,182.531,355.1,182.531
		 M328.979,168.454c1.128,1.235,2.395,2.372,3.785,3.393c1.918,1.409,4.09,2.625,6.46,3.613c2.385,0.993,4.949,1.76,7.619,2.278
		c2.681,0.52,5.458,0.783,8.256,0.783c2.769,0,5.926-0.407,9.383-1.209c3.315-0.771,6.47-2.303,9.379-4.552
		c2.884-2.232,5.338-5.466,7.296-9.611c1.965-4.169,2.961-9.78,2.961-16.675V97.831l-3.557,4.569v1.434h-3.373l-0.588-0.95
		c-1.989-3.212-4.728-5.774-8.139-7.615c-3.428-1.849-7.542-2.787-12.226-2.787c-3.996,0-7.807,0.754-11.329,2.239
		c-3.543,1.496-6.67,3.526-9.294,6.033c-2.618,2.5-4.718,5.474-6.243,8.837c-1.514,3.337-2.282,6.962-2.282,10.775
		c0,3.815,0.767,7.44,2.281,10.775c1.528,3.373,3.632,6.37,6.253,8.909c2.618,2.543,5.735,4.567,9.267,6.019
		c3.518,1.448,7.335,2.182,11.345,2.182c4.685,0,8.798-0.937,12.225-2.786c3.412-1.84,6.151-4.402,8.14-7.615l0.588-0.95h3.373
		v10.078c0,1.105-0.041,2.538-0.127,4.381c-0.09,1.876-0.383,3.884-0.87,5.973c-0.496,2.114-1.268,4.25-2.296,6.353
		c-1.069,2.182-2.567,4.198-4.455,5.995c-1.91,1.816-4.34,3.295-7.225,4.394c-2.866,1.092-6.394,1.645-10.489,1.645
		c-4.797,0-9.396-0.947-13.668-2.816c-3.683-1.612-6.878-4.025-9.525-7.189L328.979,168.454z M355.73,145.454
		c-3.456,0-6.758-0.671-9.814-1.995c-3.034-1.311-5.705-3.109-7.936-5.341c-2.232-2.23-4.03-4.901-5.341-7.937
		c-1.321-3.051-1.992-6.352-1.992-9.813c0-3.457,0.67-6.759,1.993-9.814c1.311-3.033,3.108-5.703,5.341-7.937
		c2.23-2.229,4.901-4.026,7.936-5.339c3.059-1.324,6.36-1.995,9.814-1.995c3.451,0,6.754,0.671,9.814,1.995
		c3.032,1.312,5.702,3.108,7.936,5.339c2.232,2.236,4.028,4.905,5.342,7.938c1.323,3.061,1.993,6.362,1.993,9.814
		c0,3.454-0.671,6.756-1.993,9.814c-1.314,3.035-3.11,5.705-5.34,7.936c-2.235,2.234-4.906,4.031-7.937,5.341
		C362.486,144.782,359.184,145.454,355.73,145.454 M355.73,99.293c-2.902,0-5.669,0.56-8.221,1.665
		c-2.57,1.111-4.821,2.624-6.693,4.495c-1.873,1.874-3.386,4.126-4.496,6.693c-1.104,2.55-1.664,5.315-1.664,8.221
		c0,2.909,0.56,5.674,1.663,8.22c1.11,2.571,2.623,4.823,4.496,6.694c1.873,1.874,4.123,3.386,6.693,4.495
		c2.551,1.105,5.317,1.665,8.221,1.665c2.903,0,5.67-0.56,8.221-1.664c2.568-1.11,4.819-2.622,6.694-4.497
		c1.87-1.871,3.383-4.124,4.495-6.693c1.105-2.552,1.665-5.318,1.665-8.221c0-2.901-0.56-5.667-1.665-8.221
		c-1.112-2.566-2.625-4.819-4.497-6.695c-1.873-1.87-4.126-3.383-6.693-4.495C361.397,99.853,358.63,99.293,355.73,99.293"/>
	<rect x="405.923" y="91.991" fill="#F79320" width="7.567" height="58.266"/>
	<path fill="#F79320" d="M415.497,152.262h-11.578V89.986h11.578V152.262z M407.929,148.252h3.557V93.997h-3.557V148.252z"/>
	<path fill="#F79320" d="M463.432,98.802h-16.647v37.96c0,2.608,0.713,4.626,2.144,6.055c1.429,1.431,3.405,2.144,5.927,2.144
		c1.429,0,2.879-0.189,4.352-0.568c1.47-0.378,2.878-0.86,4.224-1.449l0.631,6.811c-1.431,0.504-3.07,0.965-4.919,1.387
		c-1.85,0.42-3.49,0.629-4.919,0.629c-2.692,0-5.004-0.4-6.937-1.198c-1.934-0.797-3.489-1.87-4.666-3.215
		c-1.179-1.345-2.04-2.921-2.586-4.73c-0.548-1.808-0.819-3.763-0.819-5.866v-37.96h-12.611v-6.811h12.611V75.218h7.567v16.773
		h16.647V98.802z"/>
	<path fill="#F79320" d="M454.226,153.776c-2.942,0-5.533-0.455-7.702-1.35c-2.211-0.911-4.031-2.172-5.41-3.748
		c-1.359-1.549-2.368-3.39-2.997-5.469c-0.6-1.981-0.905-4.15-0.905-6.446v-35.956h-12.611V89.986h12.611V73.213h11.577v16.773
		h16.647v10.821H448.79v35.956c0,2.074,0.508,3.589,1.555,4.635c1.048,1.049,2.523,1.558,4.512,1.558
		c1.251,0,2.547-0.17,3.852-0.505c1.364-0.35,2.683-0.803,3.919-1.344l2.545-1.115l1.033,11.133l-1.476,0.519
		c-1.492,0.526-3.22,1.014-5.14,1.451C457.602,153.547,455.798,153.776,454.226,153.776 M428.611,96.797h12.612v39.966
		c0,1.902,0.247,3.679,0.732,5.284c0.462,1.529,1.193,2.87,2.174,3.989c0.969,1.107,2.289,2.009,3.922,2.682
		c1.684,0.695,3.76,1.047,6.174,1.047c1.274,0,2.779-0.195,4.474-0.58c1.157-0.264,2.235-0.546,3.219-0.842l-0.24-2.586
		c-0.646,0.213-1.305,0.407-1.972,0.578c-1.632,0.419-3.263,0.632-4.85,0.632c-3.065,0-5.536-0.92-7.347-2.733
		c-1.811-1.808-2.731-4.322-2.731-7.471V96.797h16.647v-2.801h-16.647V77.223h-3.556v16.773h-12.612V96.797z"/>
	<path fill="#F79320" d="M522.203,125.791c0,2.859,0.019,5.424,0.063,7.694c0.041,2.269,0.104,4.372,0.189,6.306
		c0.082,1.934,0.19,3.742,0.315,5.423c0.127,1.683,0.315,3.365,0.568,5.045h-7.062c-0.505-2.858-0.757-6.01-0.757-9.459h-0.253
		c-2.188,3.784-4.899,6.559-8.135,8.323c-3.238,1.767-7.337,2.648-12.296,2.648c-2.523,0-5.004-0.315-7.441-0.945
		c-2.44-0.631-4.625-1.639-6.557-3.027c-1.936-1.386-3.512-3.172-4.73-5.36c-1.221-2.184-1.83-4.833-1.83-7.945
		c0-4.454,1.135-7.986,3.406-10.594c2.269-2.606,5.064-4.56,8.386-5.865c3.321-1.303,6.853-2.144,10.594-2.523
		c3.74-0.378,7.041-0.567,9.9-0.567h8.829v-3.531c0-5.045-1.557-8.659-4.666-10.846c-3.112-2.185-7.022-3.279-11.731-3.279
		c-6.727,0-12.654,2.187-17.782,6.558l-4.414-5.171c2.775-2.69,6.221-4.729,10.342-6.117c4.118-1.387,8.07-2.081,11.853-2.081
		c7.064,0,12.695,1.661,16.901,4.982c4.204,3.322,6.306,8.683,6.306,16.08V125.791z M507.068,120.998
		c-3.196,0-6.286,0.211-9.269,0.631c-2.986,0.421-5.676,1.135-8.072,2.144c-2.396,1.009-4.309,2.355-5.738,4.036
		c-1.431,1.682-2.144,3.784-2.144,6.306c0,1.765,0.398,3.342,1.198,4.729c0.799,1.387,1.828,2.523,3.09,3.406
		c1.261,0.882,2.668,1.556,4.224,2.016c1.555,0.465,3.132,0.695,4.73,0.695c4.036,0,7.357-0.587,9.964-1.766
		c2.605-1.177,4.686-2.712,6.242-4.603c1.555-1.891,2.626-4.036,3.217-6.432c0.587-2.396,0.883-4.811,0.883-7.252v-3.91H507.068z"/>
	<path fill="#F79320" d="M494.835,153.776c-2.682,0-5.355-0.339-7.943-1.009c-2.671-0.691-5.103-1.815-7.225-3.341
		c-2.169-1.554-3.956-3.577-5.312-6.013c-1.382-2.474-2.083-5.476-2.083-8.921c0-4.933,1.312-8.94,3.899-11.911
		c2.474-2.839,5.557-4.997,9.164-6.414c3.479-1.365,7.222-2.257,11.126-2.651c3.786-0.383,7.186-0.577,10.102-0.577h6.824v-1.527
		c0-4.389-1.248-7.4-3.815-9.207c-2.753-1.933-6.312-2.914-10.576-2.914c-6.292,0-11.683,1.988-16.481,6.079l-1.524,1.301
		l-6.938-8.127l1.352-1.31c2.979-2.889,6.713-5.102,11.098-6.578c4.306-1.45,8.509-2.185,12.494-2.185
		c7.49,0,13.594,1.821,18.143,5.413c4.69,3.708,7.069,9.647,7.069,17.653v14.251c0,2.976,0.02,5.479,0.062,7.656
		c0.04,2.229,0.103,4.333,0.187,6.257c0.079,1.845,0.185,3.648,0.312,5.36c0.123,1.634,0.308,3.281,0.551,4.896l0.345,2.303h-11.073
		l-0.292-1.657c-0.239-1.353-0.424-2.776-0.554-4.263c-1.685,1.887-3.576,3.406-5.655,4.54
		C504.573,152.802,500.113,153.776,494.835,153.776 M506.564,116.95c-2.783,0-6.046,0.187-9.699,0.557
		c-3.54,0.358-6.926,1.163-10.063,2.394c-3.001,1.178-5.561,2.967-7.606,5.315c-1.933,2.219-2.912,5.34-2.912,9.277
		c0,2.752,0.53,5.097,1.574,6.967c1.068,1.918,2.462,3.501,4.146,4.707c1.722,1.237,3.704,2.151,5.893,2.716
		c2.26,0.585,4.595,0.882,6.938,0.882c4.599,0,8.413-0.808,11.336-2.404c2.892-1.577,5.368-4.123,7.359-7.567l0.579-1.001h3.414
		v2.005c0,2.662,0.158,5.161,0.468,7.454h3.056c-0.112-0.962-0.206-1.928-0.277-2.889c-0.131-1.757-0.238-3.602-0.32-5.488
		c-0.084-1.956-0.149-4.095-0.19-6.355c-0.042-2.2-0.064-4.729-0.064-7.731v-14.251c0-6.718-1.865-11.598-5.544-14.507
		c-3.822-3.018-9.091-4.549-15.657-4.549c-3.549,0-7.322,0.665-11.214,1.976c-3.145,1.058-5.89,2.537-8.183,4.408l1.879,2.201
		c5.122-3.841,11.005-5.786,17.517-5.786c5.104,0,9.438,1.226,12.881,3.644c3.664,2.577,5.52,6.778,5.52,12.487v5.537H506.564z
		 M495.087,146.966c-1.789,0-3.573-0.261-5.303-0.778c-1.744-0.516-3.361-1.288-4.8-2.294c-1.5-1.05-2.737-2.412-3.679-4.05
		c-0.972-1.682-1.465-3.612-1.465-5.729c0-2.999,0.882-5.559,2.623-7.605c1.628-1.915,3.81-3.457,6.487-4.585
		c2.543-1.07,5.427-1.838,8.571-2.281c3.065-0.432,6.278-0.651,9.549-0.651h10.329v5.915c0,2.581-0.316,5.18-0.94,7.729
		c-0.661,2.684-1.878,5.115-3.616,7.229c-1.746,2.122-4.09,3.858-6.965,5.157C503.023,146.312,499.393,146.966,495.087,146.966
		 M507.068,123.003c-3.084,0-6.108,0.206-8.989,0.612c-2.802,0.395-5.35,1.07-7.574,2.006c-2.092,0.882-3.771,2.054-4.988,3.486
		c-1.121,1.319-1.667,2.957-1.667,5.007c0,1.425,0.305,2.644,0.93,3.727c0.658,1.143,1.476,2.046,2.503,2.766
		c1.084,0.757,2.31,1.341,3.644,1.737c1.362,0.406,2.76,0.612,4.16,0.612c3.732,0,6.807-0.535,9.138-1.588
		c2.311-1.044,4.167-2.407,5.519-4.051c1.354-1.647,2.302-3.543,2.819-5.638c0.547-2.234,0.825-4.514,0.825-6.773v-1.904H507.068z"
		/>
	<rect x="543.641" y="54.913" fill="#F79320" width="7.567" height="95.344"/>
	<path fill="#F79320" d="M553.213,152.262h-11.577V52.907h11.577V152.262z M545.646,148.252h3.557V56.918h-3.557V148.252z"/>
	<path fill="#353535" d="M174.086,74.289l24.09-41.596h-29.55l-34.369,59.262c-0.591,0.986-1.14,1.992-1.653,3.015v-2.798V62.059
		V31.946h-7.91h-7.91h-7.91h-7.909v30.113v30.113v30.112v4.314H61.89l22.966-32.603c0,0,7.227-9.636,7.227-22.163
		c0-19.594-15.579-40.151-39.026-40.151c-24.733,0-40.793,19.112-40.793,39.669h25.857c0-8.031,6.264-14.294,13.973-14.294
		c8.512,0,14.293,7.709,14.293,13.812c0,4.657-2.248,8.673-5.3,12.366l-48.555,69.166l40.575-0.016l47.858,0.011h7.909h7.91h7.91
		h7.91v-20.727c6.617,12.732,19.93,21.474,35.219,21.474c21.842,0,39.669-17.827,39.669-39.669
		C207.492,93.882,192.877,77.34,174.086,74.289 M167.822,127.609c-7.869,0-14.133-6.264-14.133-14.133
		c0-7.709,6.264-14.133,14.133-14.133c7.709,0,14.133,6.424,14.133,14.133C181.956,121.345,175.531,127.609,167.822,127.609"/>
	<path fill="#F79320" d="M578.141,143.632c0,4.869-3.948,8.817-8.818,8.817c-4.87,0-8.817-3.948-8.817-8.817
		c0-4.87,3.948-8.818,8.817-8.818C574.194,134.813,578.141,138.762,578.141,143.632"/>
	<path fill="#F79320" d="M569.324,152.782c-5.047,0-9.152-4.105-9.152-9.151c0-5.046,4.106-9.151,9.152-9.151
		c5.046,0,9.151,4.106,9.151,9.151C578.476,148.678,574.37,152.782,569.324,152.782 M569.324,135.148
		c-4.678,0-8.484,3.805-8.484,8.483c0,4.678,3.805,8.483,8.484,8.483c4.677,0,8.483-3.805,8.483-8.483
		C577.807,138.953,574.001,135.148,569.324,135.148"/>
</g>
<g>
	<path fill="#343434" d="M21.888,168.366l1.172,2.344c0,0-1.348,1.114-3.973,1.114c-3.415,0-6.552-2.784-6.552-6.243
		c0-3.476,3.123-6.291,6.552-6.291c2.625,0,3.973,1.114,3.973,1.114l-1.172,2.347c0,0-0.968-0.747-2.376-0.747
		c-2.771,0-3.987,1.934-3.987,3.547c0,1.627,1.216,3.562,3.987,3.562C20.92,169.113,21.888,168.366,21.888,168.366z"/>
	<path fill="#343434" d="M26.884,169.186h4.163v2.42h-6.92v-12.094h2.757V169.186z"/>
	<path fill="#343434" d="M39.337,161.929h-4.163v2.405h3.987v2.42h-3.987v2.432h4.163v2.42h-6.92v-12.094h6.92V161.929z"/>
	<path fill="#343434" d="M39.639,159.512h3.108l3.049,7.946l3.05-7.946h3.108l-5.072,12.094h-2.169L39.639,159.512z"/>
	<path fill="#343434" d="M59.352,161.929h-4.163v2.405h3.987v2.42h-3.987v2.432h4.163v2.42h-6.92v-12.094h6.92V161.929z"/>
	<path fill="#343434" d="M63.699,169.186h4.163v2.42h-6.92v-12.094h2.757V169.186z"/>
	<path fill="#343434" d="M80.478,171.606h-2.962l-0.894-2.42h-4.603l-0.894,2.42h-2.961l4.881-12.094h2.551L80.478,171.606z
		 M74.335,163.25h-0.029l-1.349,3.519h2.727L74.335,163.25z"/>
	<path fill="#343434" d="M83.714,171.606h-2.757v-12.094h2.757l4.808,7.506h0.029v-7.506h2.757v12.094h-2.757l-4.808-7.506h-0.029
		V171.606z"/>
	<path fill="#343434" d="M96.581,159.512c3.314,0,6.098,2.52,6.098,6.039c0,3.534-2.771,6.054-6.098,6.054h-3.504v-12.094H96.581z
		 M96.259,169.143c2.037,0,3.43-1.554,3.445-3.577c0-2.022-1.392-3.592-3.445-3.592h-0.425v7.169H96.259z"/>
	<path fill="#343434" d="M118.937,171.606h-2.962l-0.894-2.42h-4.603l-0.894,2.42h-2.961l4.881-12.094h2.551L118.937,171.606z
		 M112.795,163.25h-0.029l-1.349,3.519h2.727L112.795,163.25z"/>
	<path fill="#343434" d="M123.742,159.512c2.242,0,3.943,1.217,3.943,3.592c0,1.816-0.996,3.034-2.476,3.504l4.163,4.998h-3.504
		l-3.694-4.779v4.779h-2.757v-12.094H123.742z M122.495,164.877c1.041,0,2.288-0.073,2.288-1.585c0-1.509-1.246-1.582-2.288-1.582
		h-0.322v3.167H122.495z"/>
	<path fill="#343434" d="M136.843,161.929h-4.163v2.405h3.987v2.42h-3.987v2.432h4.163v2.42h-6.92v-12.094h6.92V161.929z"/>
	<path fill="#343434" d="M149.546,171.606h-2.962l-0.894-2.42h-4.603l-0.894,2.42h-2.961l4.881-12.094h2.551L149.546,171.606z
		 M143.404,163.25h-0.029l-1.349,3.519h2.727L143.404,163.25z"/>
	<path fill="#343434" d="M174.39,168.366l1.172,2.344c0,0-1.348,1.114-3.973,1.114c-3.415,0-6.552-2.784-6.552-6.243
		c0-3.476,3.123-6.291,6.552-6.291c2.625,0,3.973,1.114,3.973,1.114l-1.172,2.347c0,0-0.968-0.747-2.376-0.747
		c-2.771,0-3.987,1.934-3.987,3.547c0,1.627,1.216,3.562,3.987,3.562C173.422,169.113,174.39,168.366,174.39,168.366z"/>
	<path fill="#343434" d="M182.185,159.291c3.357,0,6.083,2.727,6.083,6.261c0,3.534-2.608,6.273-6.083,6.273
		c-3.577,0-6.098-2.739-6.098-6.273C176.087,162.017,178.858,159.291,182.185,159.291z M182.185,169.158
		c2.2,0,3.108-1.803,3.108-3.607s-0.967-3.607-3.108-3.607c-2.125,0-3.123,1.803-3.123,3.607S179.928,169.158,182.185,169.158z"/>
	<path fill="#343434" d="M193.003,159.512c3.314,0,6.098,2.52,6.098,6.039c0,3.534-2.771,6.054-6.098,6.054h-3.504v-12.094H193.003z
		 M192.681,169.143c2.037,0,3.43-1.554,3.445-3.577c0-2.022-1.392-3.592-3.445-3.592h-0.425v7.169H192.681z"/>
	<path fill="#343434" d="M207.248,161.929h-4.163v2.405h3.987v2.42h-3.987v2.432h4.163v2.42h-6.92v-12.094h6.92V161.929z"/>
	<path fill="#343434" d="M223.87,171.606h-2.962l-0.894-2.42h-4.603l-0.894,2.42h-2.961l4.881-12.094h2.551L223.87,171.606z
		 M217.727,163.25h-0.029l-1.349,3.519h2.727L217.727,163.25z"/>
	<path fill="#343434" d="M227.107,171.606h-2.757v-12.094h2.757l4.808,7.506h0.029v-7.506h2.757v12.094h-2.757l-4.808-7.506h-0.029
		V171.606z"/>
	<path fill="#343434" d="M239.974,159.512c3.314,0,6.098,2.52,6.098,6.039c0,3.534-2.771,6.054-6.098,6.054h-3.504v-12.094H239.974z
		 M239.652,169.143c2.037,0,3.43-1.554,3.445-3.577c0-2.022-1.392-3.592-3.445-3.592h-0.425v7.169H239.652z"/>
	<path fill="#343434" d="M254.81,159.512c3.314,0,6.098,2.52,6.098,6.039c0,3.534-2.771,6.054-6.098,6.054h-3.504v-12.094H254.81z
		 M254.488,169.143c2.037,0,3.43-1.554,3.445-3.577c0-2.022-1.392-3.592-3.445-3.592h-0.425v7.169H254.488z"/>
	<path fill="#343434" d="M269.055,161.929h-4.163v2.405h3.987v2.42h-3.987v2.432h4.163v2.42h-6.92v-12.094h6.92V161.929z"/>
	<path fill="#343434" d="M278.856,160.435l-1.114,2.198c0,0-1.202-0.835-2.447-0.835c-0.938,0-1.436,0.425-1.436,1.084
		c0,0.674,1.142,1.16,2.52,1.746c1.348,0.571,2.83,1.715,2.83,3.298c0,2.888-2.198,3.899-4.56,3.899
		c-2.828,0-4.544-1.597-4.544-1.597l1.378-2.317c0,0,1.611,1.363,2.962,1.363c0.601,0,1.743-0.058,1.743-1.187
		c0-0.878-1.29-1.275-2.727-1.992c-1.451-0.719-2.302-1.849-2.302-3.109c0-2.256,1.995-3.695,3.944-3.695
		C277.302,159.291,278.856,160.435,278.856,160.435z"/>
	<path fill="#343434" d="M283.263,171.606h-2.754v-12.094h2.754V171.606z"/>
	<path fill="#343434" d="M295.963,167.458c-0.659,3.064-3.21,4.367-5.584,4.367c-3.255,0-5.893-2.8-5.893-6.258
		c0-3.474,2.493-6.276,5.893-6.276c2.125,0,3.607,0.792,4.661,2.068l-1.803,1.98c-0.702-1.129-1.625-1.554-2.696-1.554
		c-1.7,0-3.079,1.685-3.079,3.783c0,2.053,1.378,3.723,3.079,3.723c1.321,0,2.624-0.85,2.624-2.332h-2.784v-2.125h5.584V167.458z"/>
	<path fill="#343434" d="M299.947,171.606h-2.754v-12.094h2.754l4.811,7.506h0.03v-7.506h2.754v12.094h-2.754l-4.811-7.506h-0.03
		V171.606z"/>
</g>
<path fill="#F79320" d="M159.781,165.454c0,1.747-1.415,3.162-3.161,3.162c-1.746,0-3.161-1.415-3.161-3.162
	c0-1.746,1.415-3.162,3.161-3.162C158.365,162.292,159.781,163.708,159.781,165.454"/>
</svg>
