<svg xmlns="http://www.w3.org/2000/svg" xmlns:xlink="http://www.w3.org/1999/xlink" style="isolation:isolate" viewBox="0 0 533 533" width="533" height="533">

  <defs>
    <style>
      #puzzlePiece {
      stroke-dasharray: 2000;
      stroke-offset: 0;
      -webkit-animation: dash 4s linear forwards;
      -o-animation: dash 2s linear forwards;
      -moz-animation: dash 2s linear forwards;
      animation: dash 2s linear forwards;
      }
      @-webkit-keyframes dash {
        from {
        stroke-dashoffset: 800;
        }
        to{
        stroke-dashoffset: 0;
        }
      }
    </style>
  </defs>
      <path id="puzzlePiece" d=" M 33.26 239.2 L 33.29 239.03 L 33.32 238.8 C 33.78 235.26 34.47 231.75 35.38 228.29 C 36.31 224.8 37.5 221.39 38.95 218.08 C 40.39 214.79 42.16 211.66 44.22 208.72 C 46.42 205.57 49.06 202.74 52.05 200.31 C 54.6 199.03 57.26 197.98 60 197.18 C 62.1 196.55 64.28 196.21 66.47 196.17 C 68.95 196.12 71.4 196.68 73.62 197.8 C 75.6 198.86 77.32 200.35 78.64 202.17 C 79.74 203.68 80.65 205.31 81.36 207.03 C 82 208.55 82.58 210.09 83.12 211.64 C 83.61 213.09 84.15 214.51 84.75 215.91 C 85.21 217.03 85.8 218.09 86.49 219.08 C 87.01 219.81 87.65 220.45 88.39 220.96 C 89.27 221.53 90.27 221.91 91.3 222.1 C 92.35 222.31 93.42 222.42 94.49 222.43 C 95.46 222.44 96.41 222.3 97.34 222.03 C 98.02 221.82 98.67 221.5 99.26 221.1 C 99.84 220.69 100.37 220.21 100.82 219.67 C 101.32 219.07 101.76 218.42 102.12 217.73 C 102.89 216.28 103.46 214.73 103.81 213.13 C 104.05 212.16 104.21 211.18 104.31 210.2 L 104.31 105.15 L 208.04 105.15 C 208.74 105.1 209.44 105.01 210.13 104.87 C 211.94 104.56 213.71 104.03 215.39 103.29 C 216.25 102.91 217.08 102.44 217.85 101.89 C 218.54 101.41 219.15 100.83 219.68 100.18 C 220.18 99.55 220.57 98.86 220.84 98.11 C 221.17 97.12 221.33 96.08 221.32 95.04 C 221.32 94.02 221.21 92.99 221.01 91.99 C 220.82 90.95 220.44 89.96 219.87 89.07 C 219.35 88.34 218.72 87.69 217.99 87.18 C 216.99 86.48 215.93 85.9 214.82 85.43 C 213.41 84.84 211.99 84.29 210.54 83.8 C 208.99 83.27 207.45 82.68 205.93 82.05 C 204.2 81.34 202.57 80.42 201.05 79.33 C 199.24 78 197.74 76.28 196.68 74.3 C 195.56 72.08 195 69.63 195.05 67.14 C 195.09 64.96 195.43 62.78 196.05 60.69 C 196.86 57.94 197.91 55.28 199.2 52.72 C 202.05 49.23 205.45 46.21 209.26 43.78 C 212.86 41.48 216.69 39.59 220.7 38.13 C 224.72 36.66 228.85 35.52 233.06 34.75 C 237.16 33.98 241.31 33.52 245.47 33.36 C 245.5 33.36 245.52 33.36 245.55 33.36 C 246.47 33.32 247.38 33.31 248.3 33.31 C 253.02 33.29 257.73 33.76 262.36 34.7 L 262.53 34.72 L 262.76 34.76 C 266.3 35.21 269.81 35.9 273.27 36.82 C 276.76 37.74 280.18 38.93 283.48 40.39 C 286.77 41.83 289.9 43.59 292.84 45.65 C 295.99 47.86 298.82 50.49 301.25 53.48 C 302.53 56.03 303.58 58.7 304.39 61.44 C 305.01 63.54 305.35 65.71 305.39 67.9 C 305.44 70.38 304.88 72.84 303.76 75.05 C 302.7 77.04 301.21 78.75 299.39 80.08 C 297.88 81.17 296.25 82.09 294.53 82.8 C 293.01 83.43 291.47 84.02 289.92 84.55 C 288.47 85.04 287.05 85.59 285.65 86.18 C 284.53 86.65 283.47 87.23 282.48 87.92 C 281.75 88.44 281.12 89.08 280.6 89.82 C 280.03 90.71 279.65 91.7 279.46 92.74 C 279.26 93.75 279.15 94.78 279.14 95.81 C 279.14 96.56 279.22 97.32 279.39 98.05 C 279.52 98.61 279.71 99.16 279.97 99.68 C 280.47 100.65 281.17 101.51 282.02 102.19 C 283.02 102.99 284.12 103.64 285.3 104.13 C 286.29 104.54 287.31 104.89 288.34 105.15 L 395.94 105.15 L 395.94 209.75 C 395.94 209.92 395.93 210.09 395.92 210.26 C 395.79 211.85 395.54 213.43 395.19 214.99 C 394.61 217.66 393.69 220.25 392.44 222.69 C 391.68 224.18 390.76 225.58 389.71 226.89 C 388.54 228.33 387.18 229.61 385.66 230.69 C 383.98 231.89 382.12 232.81 380.15 233.42 C 377.99 234.08 375.75 234.4 373.49 234.39 C 371.67 234.38 369.85 234.19 368.06 233.84 C 365.38 233.34 362.83 232.31 360.55 230.81 C 358.53 229.45 356.78 227.73 355.38 225.73 C 354.17 224.01 353.15 222.17 352.34 220.23 C 351.63 218.56 350.99 216.88 350.4 215.17 C 349.96 213.86 349.46 212.57 348.93 211.3 C 348.59 210.48 348.16 209.7 347.65 208.98 C 347.46 208.73 347.23 208.52 346.96 208.36 C 346.6 208.2 346.21 208.12 345.81 208.13 C 344.74 208.15 343.68 208.32 342.65 208.62 C 341.07 209.09 339.52 209.66 338.01 210.35 C 336.33 211.84 334.84 213.53 333.55 215.36 C 331.96 217.63 330.6 220.04 329.5 222.57 C 328.3 225.29 327.32 228.09 326.57 230.96 C 325.78 233.91 325.2 236.9 324.81 239.93 C 324.8 239.97 324.8 240.02 324.79 240.07 L 324.75 240.36 L 324.7 240.68 C 324.68 240.79 324.66 240.91 324.64 241.02 C 323.85 244.86 323.46 248.78 323.47 252.71 C 323.47 253.48 323.48 254.25 323.51 255.02 C 323.64 258.6 324.04 262.17 324.7 265.7 C 325.35 269.22 326.3 272.69 327.53 276.05 C 328.68 279.21 330.17 282.23 331.98 285.05 C 333.45 287.36 335.23 289.46 337.27 291.28 C 338.77 291.97 340.32 292.54 341.9 293 C 342.92 293.31 343.98 293.48 345.05 293.5 C 345.45 293.51 345.85 293.43 346.21 293.26 C 346.48 293.1 346.71 292.89 346.89 292.64 C 347.41 291.92 347.84 291.14 348.18 290.32 C 348.71 289.05 349.2 287.75 349.65 286.45 C 350.24 284.74 350.88 283.05 351.58 281.38 C 352.4 279.44 353.42 277.59 354.62 275.87 C 356.03 273.88 357.78 272.15 359.8 270.79 C 362.08 269.28 364.63 268.26 367.32 267.76 C 369.06 267.41 370.84 267.23 372.62 267.22 C 375.09 267.2 377.53 267.6 379.86 268.4 C 381.97 269.13 383.94 270.22 385.68 271.62 C 387.23 272.88 388.61 274.34 389.76 275.97 C 390.79 277.43 391.67 278.98 392.39 280.61 C 393.52 283.18 394.34 285.87 394.83 288.64 C 395.07 289.88 395.23 291.14 395.3 292.41 C 395.31 292.52 395.32 292.63 395.32 292.75 L 395.98 397.21 L 292.78 397.5 C 292.08 397.55 291.38 397.65 290.68 397.79 C 288.88 398.1 287.11 398.63 285.43 399.37 C 284.56 399.75 283.74 400.22 282.97 400.77 C 282.28 401.25 281.66 401.83 281.13 402.48 C 280.64 403.1 280.25 403.8 279.98 404.55 C 279.65 405.54 279.48 406.57 279.49 407.61 C 279.5 408.64 279.6 409.66 279.81 410.67 C 279.99 411.71 280.38 412.7 280.95 413.59 C 281.46 414.32 282.1 414.96 282.83 415.48 C 283.82 416.18 284.88 416.76 286 417.23 C 287.41 417.82 288.83 418.36 290.27 418.86 C 291.83 419.39 293.37 419.98 294.89 420.61 C 296.61 421.32 298.25 422.24 299.76 423.33 C 301.58 424.65 303.07 426.37 304.13 428.36 C 305.25 430.57 305.81 433.03 305.77 435.51 C 305.73 437.7 305.39 439.88 304.76 441.97 C 303.96 444.72 302.91 447.38 301.62 449.93 C 298.76 453.43 295.36 456.45 291.55 458.88 C 287.96 461.18 284.13 463.07 280.12 464.53 C 276.1 466 271.96 467.13 267.75 467.91 C 263.63 468.68 259.45 469.15 255.26 469.3 C 254.34 469.33 253.42 469.35 252.51 469.35 C 247.79 469.37 243.08 468.9 238.45 467.96 L 238.28 467.94 L 238.05 467.9 C 234.5 467.45 230.99 466.76 227.54 465.84 C 224.05 464.92 220.63 463.73 217.33 462.27 C 214.04 460.83 210.91 459.07 207.97 457.01 C 204.82 454.8 201.99 452.16 199.56 449.18 C 198.28 446.62 197.23 443.96 196.42 441.22 C 195.8 439.12 195.46 436.95 195.42 434.76 C 195.37 432.28 195.93 429.82 197.05 427.61 C 198.11 425.62 199.6 423.9 201.41 422.58 C 202.92 421.49 204.56 420.57 206.28 419.86 C 207.8 419.23 209.34 418.64 210.89 418.11 C 212.33 417.61 213.76 417.07 215.16 416.48 C 216.28 416.01 217.34 415.43 218.33 414.73 C 219.06 414.22 219.69 413.57 220.2 412.84 C 220.77 411.95 221.16 410.96 221.35 409.92 C 221.55 408.92 221.66 407.9 221.66 406.87 C 221.67 406.07 221.57 405.28 221.39 404.5 C 221.24 403.91 221.02 403.34 220.74 402.8 C 220.15 401.76 219.36 400.86 218.39 400.16 C 217.27 399.34 216.03 398.67 214.72 398.19 C 213.66 397.79 212.56 397.47 211.45 397.22 L 104.35 397.22 L 103.72 293.54 C 103.67 292.83 103.58 292.13 103.44 291.44 C 103.13 289.63 102.6 287.86 101.86 286.18 C 101.47 285.32 101 284.49 100.46 283.72 C 99.97 283.03 99.39 282.41 98.74 281.88 C 98.12 281.39 97.42 281 96.67 280.73 C 95.69 280.4 94.65 280.24 93.61 280.25 C 92.58 280.25 91.56 280.36 90.55 280.56 C 89.51 280.74 88.52 281.13 87.64 281.7 C 86.9 282.21 86.26 282.85 85.74 283.58 C 85.05 284.57 84.46 285.64 84 286.75 C 83.4 288.16 82.86 289.58 82.37 291.02 C 81.83 292.58 81.25 294.12 80.61 295.64 C 79.9 297.37 78.99 299 77.89 300.51 C 76.57 302.33 74.85 303.83 72.86 304.88 C 70.65 306 68.19 306.57 65.71 306.52 C 63.52 306.48 61.35 306.14 59.25 305.51 C 56.51 304.71 53.84 303.66 51.29 302.37 C 47.79 299.51 44.77 296.11 42.34 292.3 C 40.05 288.71 38.15 284.88 36.7 280.87 C 35.22 276.85 34.09 272.72 33.31 268.51 C 32.54 264.38 32.08 260.2 31.92 256.01 C 31.89 255.09 31.87 254.18 31.87 253.26 C 31.86 248.54 32.32 243.83 33.26 239.2 Z  M 246.09 45.84 C 246.83 45.81 247.58 45.8 248.32 45.8 C 252.25 45.78 256.17 46.18 260.01 46.97 C 260.12 46.99 260.24 47.01 260.35 47.03 L 260.67 47.08 L 260.96 47.12 C 261.01 47.13 261.06 47.13 261.1 47.14 C 264.13 47.53 267.13 48.11 270.07 48.9 C 272.94 49.65 275.75 50.63 278.46 51.83 C 280.99 52.93 283.4 54.29 285.67 55.88 C 287.5 57.17 289.19 58.66 290.68 60.34 C 291.37 61.84 291.94 63.4 292.41 64.98 C 292.72 66.01 292.88 67.07 292.9 68.14 C 292.91 68.54 292.83 68.93 292.67 69.29 C 292.51 69.56 292.3 69.79 292.05 69.98 C 291.33 70.49 290.55 70.92 289.73 71.26 C 288.46 71.79 287.17 72.29 285.86 72.73 C 284.15 73.32 282.47 73.96 280.8 74.67 C 278.87 75.48 277.02 76.5 275.3 77.7 C 273.3 79.11 271.58 80.86 270.22 82.88 C 268.72 85.16 267.69 87.71 267.19 90.39 C 266.84 92.16 266.66 93.95 266.65 95.74 C 266.64 97.45 266.83 99.15 267.2 100.81 C 267.56 102.37 268.1 103.88 268.82 105.31 C 270.13 107.88 271.96 110.13 274.2 111.93 C 276.11 113.47 278.23 114.72 280.49 115.66 C 282.34 116.43 284.26 117.05 286.22 117.49 C 286.67 117.59 287.13 117.65 287.6 117.65 L 383.45 117.65 L 383.45 209.47 C 383.36 210.42 383.21 211.35 382.99 212.28 C 382.64 213.92 382.08 215.5 381.32 217 C 380.95 217.72 380.51 218.39 380 219.02 C 379.54 219.59 379.01 220.09 378.42 220.51 C 377.82 220.94 377.16 221.26 376.47 221.48 C 375.53 221.76 374.56 221.9 373.58 221.89 C 372.51 221.89 371.45 221.78 370.41 221.57 C 369.37 221.38 368.38 221 367.49 220.43 C 366.75 219.91 366.11 219.28 365.59 218.55 C 364.9 217.56 364.32 216.5 363.85 215.38 C 363.26 213.98 362.72 212.56 362.22 211.11 C 361.69 209.56 361.1 208.02 360.47 206.5 C 359.76 204.78 358.84 203.15 357.75 201.64 C 356.42 199.82 354.71 198.33 352.72 197.27 C 350.51 196.15 348.05 195.59 345.57 195.64 C 343.38 195.68 341.21 196.02 339.11 196.65 C 336.37 197.45 333.7 198.5 331.15 199.78 C 328.17 202.21 325.53 205.04 323.32 208.19 C 321.26 211.13 319.5 214.26 318.06 217.55 C 316.6 220.86 315.41 224.27 314.49 227.76 C 313.57 231.22 312.88 234.73 312.43 238.27 L 312.39 238.5 L 312.37 238.67 C 311.43 243.3 310.96 248.01 310.98 252.73 C 310.98 253.65 310.99 254.56 311.03 255.48 C 311.18 259.67 311.65 263.85 312.42 267.98 C 313.19 272.19 314.33 276.32 315.8 280.34 C 317.26 284.35 319.15 288.18 321.45 291.77 C 323.88 295.58 326.9 298.98 330.39 301.84 C 332.95 303.13 335.61 304.18 338.36 304.98 C 340.45 305.61 342.63 305.95 344.81 305.99 C 347.3 306.04 349.75 305.47 351.97 304.35 C 353.95 303.3 355.67 301.8 357 299.98 C 358.09 298.47 359.01 296.84 359.72 295.11 C 360.35 293.59 360.94 292.05 361.47 290.49 C 361.97 289.05 362.51 287.63 363.1 286.22 C 363.57 285.11 364.15 284.04 364.85 283.05 C 365.36 282.32 366.01 281.68 366.74 281.17 C 367.63 280.6 368.62 280.21 369.66 280.03 C 370.66 279.83 371.69 279.72 372.71 279.72 C 373.76 279.71 374.79 279.87 375.78 280.2 C 376.53 280.47 377.22 280.86 377.85 281.35 C 378.5 281.88 379.08 282.5 379.56 283.19 C 380.11 283.96 380.58 284.79 380.96 285.65 C 381.7 287.33 382.23 289.1 382.54 290.91 C 382.68 291.6 382.78 292.31 382.83 293.01 L 383.41 384.75 L 292.55 385.01 C 292.43 385.01 292.31 385.02 292.18 385.02 C 290.92 385.1 289.66 385.26 288.41 385.5 C 285.65 385.99 282.95 386.81 280.39 387.94 C 278.76 388.66 277.21 389.54 275.75 390.57 C 274.12 391.72 272.66 393.09 271.4 394.65 C 270 396.39 268.91 398.36 268.18 400.47 C 267.38 402.8 266.98 405.24 267 407.7 C 267.01 409.49 267.19 411.26 267.54 413.01 C 268.03 415.7 269.06 418.25 270.56 420.53 C 271.93 422.55 273.66 424.3 275.65 425.71 C 277.37 426.91 279.22 427.93 281.16 428.74 C 282.83 429.45 284.51 430.09 286.22 430.68 C 287.53 431.12 288.83 431.62 290.1 432.15 C 290.92 432.49 291.7 432.92 292.42 433.44 C 292.67 433.62 292.88 433.85 293.04 434.12 C 293.2 434.48 293.28 434.88 293.28 435.28 C 293.26 436.34 293.09 437.41 292.78 438.43 C 292.32 440.01 291.75 441.56 291.06 443.06 C 289.24 445.1 287.14 446.88 284.83 448.35 C 282.01 450.16 278.99 451.65 275.83 452.79 C 272.47 454.03 269 454.98 265.47 455.63 C 261.95 456.29 258.38 456.69 254.8 456.82 C 254.03 456.84 253.26 456.86 252.48 456.86 C 248.56 456.87 244.64 456.48 240.8 455.69 C 240.68 455.67 240.57 455.65 240.46 455.63 L 240.14 455.58 L 239.85 455.54 C 239.8 455.53 239.75 455.53 239.71 455.52 C 236.68 455.13 233.68 454.55 230.74 453.76 C 227.87 453.01 225.06 452.03 222.35 450.83 C 219.82 449.72 217.4 448.37 215.14 446.78 C 213.3 445.49 211.62 443.99 210.13 442.32 C 209.44 440.81 208.87 439.26 208.4 437.67 C 208.09 436.65 207.93 435.59 207.91 434.52 C 207.9 434.12 207.98 433.73 208.14 433.36 C 208.3 433.1 208.51 432.87 208.76 432.68 C 209.48 432.17 210.26 431.73 211.07 431.4 C 212.35 430.86 213.64 430.37 214.95 429.92 C 216.65 429.34 218.34 428.69 220.01 427.99 C 221.94 427.18 223.79 426.16 225.51 424.95 C 227.5 423.55 229.23 421.79 230.59 419.78 C 232.09 417.5 233.12 414.94 233.62 412.26 C 233.96 410.51 234.14 408.73 234.15 406.94 C 234.16 405.12 233.95 403.31 233.52 401.55 C 233.12 399.9 232.51 398.31 231.7 396.81 C 230.24 394.16 228.21 391.86 225.77 390.08 C 223.72 388.58 221.47 387.37 219.09 386.49 C 217.2 385.78 215.25 385.23 213.27 384.84 C 212.88 384.77 212.48 384.73 212.09 384.73 L 116.77 384.73 L 116.21 293.28 C 116.21 293.17 116.21 293.05 116.2 292.94 C 116.12 291.67 115.96 290.41 115.72 289.17 C 115.23 286.4 114.42 283.71 113.28 281.14 C 112.57 279.51 111.68 277.96 110.66 276.5 C 109.5 274.87 108.13 273.41 106.58 272.15 C 104.83 270.75 102.87 269.66 100.76 268.93 C 98.43 268.13 95.98 267.73 93.52 267.75 C 91.74 267.76 89.96 267.94 88.21 268.29 C 85.53 268.79 82.97 269.82 80.7 271.32 C 78.68 272.68 76.92 274.41 75.52 276.4 C 74.31 278.12 73.29 279.97 72.48 281.91 C 71.78 283.58 71.13 285.27 70.55 286.98 C 70.1 288.28 69.61 289.58 69.07 290.85 C 68.74 291.67 68.31 292.45 67.79 293.17 C 67.6 293.42 67.37 293.63 67.1 293.79 C 66.74 293.96 66.35 294.04 65.95 294.03 C 64.88 294.01 63.82 293.84 62.79 293.53 C 61.21 293.07 59.66 292.5 58.16 291.81 C 56.12 289.99 54.34 287.89 52.88 285.58 C 51.07 282.76 49.58 279.74 48.43 276.58 C 47.19 273.22 46.24 269.75 45.6 266.23 C 44.94 262.7 44.54 259.13 44.41 255.55 C 44.38 254.78 44.36 254.01 44.37 253.24 C 44.35 249.31 44.74 245.39 45.53 241.55 C 45.56 241.44 45.58 241.32 45.59 241.21 L 45.64 240.89 L 45.68 240.6 C 45.69 240.55 45.7 240.5 45.7 240.46 C 46.09 237.43 46.68 234.44 47.46 231.49 C 48.22 228.62 49.2 225.82 50.39 223.1 C 51.5 220.57 52.86 218.16 54.44 215.89 C 55.73 214.06 57.23 212.37 58.91 210.88 C 60.41 210.19 61.96 209.62 63.55 209.15 C 64.57 208.85 65.64 208.68 66.7 208.66 C 67.1 208.65 67.5 208.73 67.86 208.89 C 68.13 209.05 68.36 209.26 68.54 209.51 C 69.06 210.23 69.49 211.01 69.82 211.83 C 70.36 213.1 70.85 214.39 71.3 215.7 C 71.89 217.41 72.53 219.09 73.23 220.76 C 74.05 222.7 75.06 224.54 76.27 226.26 C 77.68 228.26 79.43 229.98 81.45 231.35 C 83.73 232.84 86.28 233.87 88.96 234.37 C 90.75 234.72 92.58 234.91 94.41 234.92 C 96.62 234.94 98.82 234.62 100.94 233.99 C 102.87 233.4 104.71 232.52 106.37 231.37 C 107.88 230.32 109.24 229.08 110.41 227.68 C 111.47 226.41 112.39 225.03 113.16 223.58 C 114.43 221.17 115.38 218.61 115.98 215.95 C 116.37 214.34 116.63 212.7 116.78 211.05 C 116.8 210.87 116.81 210.68 116.81 210.49 L 116.81 117.65 L 208.25 117.65 C 208.38 117.65 208.5 117.64 208.63 117.63 C 209.9 117.56 211.16 117.4 212.4 117.16 C 215.17 116.67 217.86 115.85 220.43 114.72 C 222.06 114 223.61 113.12 225.06 112.09 C 226.69 110.94 228.16 109.56 229.41 108.01 C 230.81 106.27 231.9 104.3 232.64 102.19 C 233.44 99.86 233.83 97.42 233.81 94.95 C 233.8 93.17 233.62 91.39 233.28 89.65 C 232.78 86.96 231.75 84.41 230.25 82.13 C 228.88 80.11 227.16 78.36 225.17 76.95 C 223.44 75.75 221.6 74.73 219.66 73.91 C 217.99 73.21 216.3 72.57 214.59 71.98 C 213.28 71.53 211.99 71.04 210.71 70.51 C 209.89 70.17 209.12 69.74 208.4 69.22 C 208.15 69.04 207.93 68.81 207.77 68.54 C 207.61 68.18 207.53 67.78 207.54 67.38 C 207.56 66.31 207.73 65.25 208.03 64.23 C 208.5 62.65 209.07 61.1 209.75 59.6 C 211.58 57.56 213.67 55.78 215.98 54.31 C 218.81 52.5 221.83 51.01 224.98 49.86 C 228.35 48.63 231.82 47.68 235.34 47.03 C 238.87 46.37 242.43 45.97 246.02 45.84 C 246.04 45.84 246.07 45.84 246.09 45.84 Z  M 245.61 45.84 C 245.75 45.85 245.88 45.85 246.01 45.84 C 246.04 45.84 246.06 45.84 246.09 45.84" fill-rule="evenodd" fill="rgb(0,0,0)"/></svg>
