<svg version="1.1" class="puzzleAnimation" xmlns="http://www.w3.org/2000/svg" xmlns:xlink="http://www.w3.org/1999/xlink" x="0px" y="0px"
viewBox="145.094 220.598 340.928 341.252"
	 enable-background="new 145.094 220.598 340.928 341.252" width="20px">
	 <defs>
		 <style>
			 .puzzlePiece{
			 transition: ease-in-out .6s;
			 stroke-dasharray: 1754;
			 stroke-dashoffset: 0;
			 -webkit-animation: dash 4s linear forwards;
			 -moz-animation: dash 4s linear forwards;
			 -o-animation: dash 4s linear forwards;
			 animation: dash 4s linear forwards;
			 }
			 .puzzlePiece:hover {
			 fill:#ff5a09;
			 transition: ease-in-out .6s;
			 }
				@-webkit-keyframes dash{
			 from {
			 stroke-dashoffset: 1754;
			 }
			 to{
			 stroke-dashoffset: 0;
			 }}
		 		 </style>
	 </defs>
<path class="puzzlePiece" fill="rgba(255, 255, 255, 0)" stroke="#333333" stroke-width="5" stroke-linejoin="round"  d="M276.987,223.135
	c-14.535,0.535-30.838,5.406-39.535,15.837c-12.65,26.955,18.081,14.509,21.695,33.17c3.615,18.661-18.079,19.693-18.079,19.693
	h-93.474l0.12,92.697c0,0,1.032,21.693,19.693,18.079c15.163-2.938,9.786-23.791,21.695-24.713
	c2.749-0.213,6.421,0.646,11.475,3.018c10.432,8.697,15.303,25,15.837,39.535c0.198,5.366-0.271,10.412-1.195,14.822
	c-0.023,0.194-0.064,0.4-0.089,0.598c-1.62,12.54-6.466,25.262-15.271,32.603c-26.955,12.65-14.509-18.081-33.17-21.694
	c-13.596-2.635-17.796,8.106-19.095,14.164v98.406l93.802-0.747c0,0,21.693-1.031,18.079-19.691
	c-3.614-18.662-34.316-6.216-21.665-33.171c8.697-10.433,24.971-15.304,39.504-15.838c5.366-0.197,10.412,0.271,14.822,1.194
	c0.195,0.024,0.401,0.064,0.598,0.09c12.54,1.62,25.292,6.467,32.632,15.271c12.649,26.955-18.081,14.51-21.695,33.171
	c-3.614,18.661,18.079,19.692,18.079,19.692l92.936,0.029v-97.624c1.326-6.073,5.55-16.691,19.065-14.074
	c18.662,3.614,6.216,34.346,33.171,21.695c8.804-7.341,13.65-20.092,15.271-32.633c0.024-0.195,0.064-0.372,0.09-0.566
	c0.924-4.41,1.393-9.456,1.194-14.822c-0.534-14.534-5.405-30.838-15.838-39.535c-26.955-12.65-14.509,18.081-33.17,21.695
	c-18.662,3.614-19.692-18.079-19.692-18.079l-0.091-93.563h-97.689c-6.125-1.417-16.222-5.73-13.656-18.976
	c3.614-18.661,34.316-6.215,21.665-33.17c-7.341-8.804-20.062-13.65-32.603-15.271c-0.196-0.025-0.402-0.066-0.598-0.089
	c-4.41-0.924-9.457-1.393-14.822-1.195L276.987,223.135z"/>
</svg>
